<svg xmlns="http://www.w3.org/2000/svg" width="20" height="21" fill="none"><g clip-path="url(#a)"><path stroke="#0A192F" stroke-linecap="round" stroke-linejoin="round" stroke-width="1.667" d="M7.5 16.396c-4.167 1.25-4.167-2.084-5.833-2.5m11.666 5V15.67a2.81 2.81 0 0 0-.783-2.175c2.617-.292 5.367-1.284 5.367-5.833a4.533 4.533 0 0 0-1.25-3.125 4.225 4.225 0 0 0-.075-3.142s-.984-.292-3.259 1.233a11.15 11.15 0 0 0-5.833 0C5.225 1.104 4.242 1.396 4.242 1.396a4.225 4.225 0 0 0-.075 3.142 4.533 4.533 0 0 0-1.25 3.15c0 4.516 2.75 5.508 5.366 5.833a2.808 2.808 0 0 0-.783 2.15v3.225"/></g><defs><clipPath id="a"><path fill="#fff" d="M0 .563h20v20H0z"/></clipPath></defs></svg>